<svg xmlns="http://www.w3.org/2000/svg" viewBox="0 0 124 111">
    <path d="M137.8,108.93C144.719,106.589 150.735,102.14 155,96.21C164.792,82.582 163.205,63.666 151.28,51.86C144.804,45.207 135.853,41.527 126.57,41.7L80,41.7L80,62.7L126.59,62.7C130.281,62.636 133.838,64.103 136.41,66.75C139.013,69.22 140.48,72.662 140.46,76.25C140.501,79.889 139.034,83.388 136.41,85.91C133.827,88.536 130.272,89.984 126.59,89.91L80,89.91L80,110.91L114.2,110.91L138.64,152.37L163.09,152.37L137.8,108.93Z" fill="rgb(0,189,172)" transform="matrix(1,0,0,1,-39.17,-41.694157)"/>
    <rect x="0" y="48.645843" width="20.98" height="62.03" fill="rgb(0,189,172)"/>
    <rect x="0" y="0.005843" width="20.98" height="20.98" fill="rgb(0,189,172)"/>
</svg>
